<svg width="240" height="37" viewBox="0 0 240 37" fill="none" xmlns="http://www.w3.org/2000/svg">
<path d="M3.17045 36V9.81818H12.017C14.071 9.81818 15.75 10.1889 17.054 10.9304C18.3665 11.6634 19.3381 12.6562 19.9688 13.9091C20.5994 15.1619 20.9148 16.5597 20.9148 18.1023C20.9148 19.6449 20.5994 21.0469 19.9688 22.3082C19.3466 23.5696 18.3835 24.5753 17.0795 25.3253C15.7756 26.0668 14.1051 26.4375 12.0682 26.4375H5.72727V23.625H11.9659C13.3722 23.625 14.5014 23.3821 15.3537 22.8963C16.206 22.4105 16.8239 21.7543 17.2074 20.9276C17.5994 20.0923 17.7955 19.1506 17.7955 18.1023C17.7955 17.054 17.5994 16.1165 17.2074 15.2898C16.8239 14.4631 16.2017 13.8153 15.3409 13.3466C14.4801 12.8693 13.3381 12.6307 11.9148 12.6307H6.34091V36H3.17045ZM37.9879 27.9716V16.3636H41.005V36H37.9879V32.6761H37.7834C37.3232 33.6733 36.6072 34.5213 35.6357 35.2202C34.6641 35.9105 33.4368 36.2557 31.9538 36.2557C30.7266 36.2557 29.6357 35.9872 28.6811 35.4503C27.7266 34.9048 26.9766 34.0866 26.4311 32.9957C25.8857 31.8963 25.6129 30.5114 25.6129 28.8409V16.3636H28.63V28.6364C28.63 30.0682 29.0305 31.2102 29.8317 32.0625C30.6413 32.9148 31.6726 33.3409 32.9254 33.3409C33.6754 33.3409 34.4382 33.1491 35.2138 32.7656C35.9979 32.3821 36.6541 31.794 37.1825 31.0014C37.7195 30.2088 37.9879 29.1989 37.9879 27.9716ZM49.5479 9.81818V36H46.5309V9.81818H49.5479ZM68.983 20.7614L66.2727 21.5284C66.1023 21.0767 65.8509 20.6378 65.5185 20.2116C65.1946 19.777 64.7514 19.419 64.1889 19.1378C63.6264 18.8565 62.9062 18.7159 62.0284 18.7159C60.8267 18.7159 59.8253 18.9929 59.0241 19.5469C58.2315 20.0923 57.8352 20.7869 57.8352 21.6307C57.8352 22.3807 58.108 22.973 58.6534 23.4077C59.1989 23.8423 60.0511 24.2045 61.2102 24.4943L64.125 25.2102C65.8807 25.6364 67.1889 26.2884 68.0497 27.1662C68.9105 28.0355 69.3409 29.1562 69.3409 30.5284C69.3409 31.6534 69.017 32.6591 68.3693 33.5455C67.7301 34.4318 66.8352 35.1307 65.6847 35.642C64.5341 36.1534 63.196 36.4091 61.6705 36.4091C59.6676 36.4091 58.0099 35.9744 56.6974 35.1051C55.3849 34.2358 54.554 32.9659 54.2045 31.2955L57.0682 30.5795C57.3409 31.6364 57.8565 32.429 58.6151 32.9574C59.3821 33.4858 60.3835 33.75 61.6193 33.75C63.0256 33.75 64.142 33.4517 64.9688 32.8551C65.804 32.25 66.2216 31.5256 66.2216 30.6818C66.2216 30 65.983 29.429 65.5057 28.9688C65.0284 28.5 64.2955 28.1506 63.3068 27.9205L60.0341 27.1534C58.2358 26.7273 56.9148 26.0668 56.071 25.1719C55.2358 24.2685 54.8182 23.1392 54.8182 21.7841C54.8182 20.6761 55.1293 19.696 55.7514 18.8438C56.3821 17.9915 57.2386 17.3224 58.321 16.8366C59.4119 16.3509 60.6477 16.108 62.0284 16.108C63.9716 16.108 65.4972 16.5341 66.6051 17.3864C67.7216 18.2386 68.5142 19.3636 68.983 20.7614ZM82.1154 36.4091C80.2234 36.4091 78.5913 35.9915 77.2191 35.1562C75.8555 34.3125 74.8029 33.1364 74.0614 31.6278C73.3285 30.1108 72.962 28.3466 72.962 26.3352C72.962 24.3239 73.3285 22.5511 74.0614 21.017C74.8029 19.4744 75.8342 18.2727 77.1552 17.4119C78.4847 16.5426 80.0359 16.108 81.8086 16.108C82.8313 16.108 83.8413 16.2784 84.8384 16.6193C85.8356 16.9602 86.7433 17.5142 87.5614 18.2812C88.3796 19.0398 89.0316 20.0455 89.5174 21.2983C90.0032 22.5511 90.2461 24.0937 90.2461 25.9261V27.2045H75.1097V24.5966H87.1779C87.1779 23.4886 86.9563 22.5 86.5131 21.6307C86.0785 20.7614 85.4563 20.0753 84.6467 19.5724C83.8455 19.0696 82.8995 18.8182 81.8086 18.8182C80.6069 18.8182 79.5671 19.1165 78.6893 19.7131C77.82 20.3011 77.1509 21.0682 76.6822 22.0142C76.2134 22.9602 75.979 23.9744 75.979 25.0568V26.7955C75.979 28.2784 76.2347 29.5355 76.7461 30.5668C77.266 31.5895 77.9862 32.3693 78.9066 32.9062C79.8271 33.4347 80.8967 33.6989 82.1154 33.6989C82.908 33.6989 83.6239 33.5881 84.2631 33.3665C84.9109 33.1364 85.4691 32.7955 85.9379 32.3438C86.4066 31.8835 86.7688 31.3125 87.0245 30.6307L89.9393 31.4489C89.6325 32.4375 89.1168 33.3068 88.3924 34.0568C87.668 34.7983 86.7731 35.3778 85.7077 35.7955C84.6424 36.2045 83.445 36.4091 82.1154 36.4091Z" fill="black"/>
<path d="M151.17 35V8.81818H160.017C162.071 8.81818 163.75 9.18892 165.054 9.9304C166.366 10.6634 167.338 11.6562 167.969 12.9091C168.599 14.1619 168.915 15.5597 168.915 17.1023C168.915 18.6449 168.599 20.0469 167.969 21.3082C167.347 22.5696 166.384 23.5753 165.08 24.3253C163.776 25.0668 162.105 25.4375 160.068 25.4375H153.727V22.625H159.966C161.372 22.625 162.501 22.3821 163.354 21.8963C164.206 21.4105 164.824 20.7543 165.207 19.9276C165.599 19.0923 165.795 18.1506 165.795 17.1023C165.795 16.054 165.599 15.1165 165.207 14.2898C164.824 13.4631 164.202 12.8153 163.341 12.3466C162.48 11.8693 161.338 11.6307 159.915 11.6307H154.341V35H151.17ZM181.379 35.4091C179.607 35.4091 178.051 34.9872 176.713 34.1435C175.384 33.2997 174.344 32.1193 173.594 30.6023C172.852 29.0852 172.482 27.3125 172.482 25.2841C172.482 23.2386 172.852 21.4531 173.594 19.9276C174.344 18.402 175.384 17.2173 176.713 16.3736C178.051 15.5298 179.607 15.108 181.379 15.108C183.152 15.108 184.703 15.5298 186.033 16.3736C187.371 17.2173 188.411 18.402 189.152 19.9276C189.902 21.4531 190.277 23.2386 190.277 25.2841C190.277 27.3125 189.902 29.0852 189.152 30.6023C188.411 32.1193 187.371 33.2997 186.033 34.1435C184.703 34.9872 183.152 35.4091 181.379 35.4091ZM181.379 32.6989C182.726 32.6989 183.834 32.3537 184.703 31.6634C185.572 30.973 186.216 30.0653 186.634 28.9403C187.051 27.8153 187.26 26.5966 187.26 25.2841C187.26 23.9716 187.051 22.7486 186.634 21.6151C186.216 20.4815 185.572 19.5653 184.703 18.8665C183.834 18.1676 182.726 17.8182 181.379 17.8182C180.033 17.8182 178.925 18.1676 178.055 18.8665C177.186 19.5653 176.543 20.4815 176.125 21.6151C175.707 22.7486 175.499 23.9716 175.499 25.2841C175.499 26.5966 175.707 27.8153 176.125 28.9403C176.543 30.0653 177.186 30.973 178.055 31.6634C178.925 32.3537 180.033 32.6989 181.379 32.6989ZM194.882 35V15.3636H197.9V35H194.882ZM196.417 12.0909C195.828 12.0909 195.321 11.8906 194.895 11.4901C194.478 11.0895 194.269 10.608 194.269 10.0455C194.269 9.48295 194.478 9.00142 194.895 8.60085C195.321 8.20028 195.828 8 196.417 8C197.005 8 197.507 8.20028 197.925 8.60085C198.351 9.00142 198.564 9.48295 198.564 10.0455C198.564 10.608 198.351 11.0895 197.925 11.4901C197.507 11.8906 197.005 12.0909 196.417 12.0909ZM206.442 23.1875V35H203.425V15.3636H206.34V18.4318H206.596C207.056 17.4347 207.755 16.6335 208.692 16.0284C209.63 15.4148 210.84 15.108 212.323 15.108C213.653 15.108 214.816 15.3807 215.813 15.9261C216.81 16.4631 217.586 17.2812 218.14 18.3807C218.694 19.4716 218.971 20.8523 218.971 22.5227V35H215.954V22.7273C215.954 21.1847 215.553 19.983 214.752 19.1222C213.951 18.2528 212.852 17.8182 211.454 17.8182C210.491 17.8182 209.63 18.027 208.871 18.4446C208.121 18.8622 207.529 19.4716 207.094 20.2727C206.66 21.0739 206.442 22.0455 206.442 23.1875ZM233.024 15.3636V17.9205H222.848V15.3636H233.024ZM225.814 10.6591H228.831V29.375C228.831 30.2273 228.954 30.8665 229.201 31.2926C229.457 31.7102 229.781 31.9915 230.173 32.1364C230.574 32.2727 230.995 32.3409 231.439 32.3409C231.771 32.3409 232.044 32.3239 232.257 32.2898C232.47 32.2472 232.64 32.2131 232.768 32.1875L233.382 34.8977C233.177 34.9744 232.892 35.0511 232.525 35.1278C232.159 35.2131 231.694 35.2557 231.132 35.2557C230.279 35.2557 229.444 35.0724 228.626 34.706C227.816 34.3395 227.143 33.7812 226.606 33.0312C226.078 32.2812 225.814 31.3352 225.814 30.1932V10.6591Z" fill="black"/>
<path d="M107.19 4.18852C111.251 0.12886 117.723 -0.0541971 122.001 3.63935C126.277 -0.0541971 132.749 0.12886 136.81 4.18852C140.864 8.24092 141.054 14.6934 137.379 18.9703L124.37 32.019C123.12 33.2676 121.13 33.3243 119.814 32.1891L119.63 32.019L106.621 18.9703C102.946 14.6934 103.136 8.24092 107.19 4.18852ZM109.56 6.55706C106.699 9.41622 106.617 14.001 109.314 16.9589L109.56 17.2155L122 29.6503L130.885 20.7671L124.962 14.847L123.185 16.6234C121.222 18.5855 118.039 18.5855 116.076 16.6234C114.113 14.6612 114.113 11.4799 116.076 9.51775L119.597 5.99645C116.727 3.70012 112.568 3.80529 109.816 6.31199L109.56 6.55706ZM123.777 11.2942C124.431 10.6401 125.492 10.6401 126.147 11.2942L133.255 18.3986L134.44 17.2155C137.385 14.2723 137.385 9.50031 134.44 6.55706C131.58 3.6979 126.993 3.61622 124.034 6.31199L123.777 6.55706L118.446 11.8863C117.838 12.4936 117.795 13.4514 118.315 14.1087L118.446 14.2549C119.053 14.8622 120.011 14.9056 120.669 14.385L120.815 14.2549L123.777 11.2942Z" fill="#B1040E"/>
<line x1="104" y1="36.75" x2="140" y2="36.75" stroke="black" stroke-width="0.5"/>
</svg>
