<svg width="154" height="26" viewBox="0 0 154 26" fill="none" xmlns="http://www.w3.org/2000/svg">
<path d="M2.11364 25V7.54545H8.01136C9.38068 7.54545 10.5 7.79261 11.3693 8.28693C12.2443 8.77557 12.892 9.4375 13.3125 10.2727C13.733 11.108 13.9432 12.0398 13.9432 13.0682C13.9432 14.0966 13.733 15.0312 13.3125 15.8722C12.8977 16.7131 12.2557 17.3835 11.3864 17.8835C10.517 18.3778 9.40341 18.625 8.04545 18.625H3.81818V16.75H7.97727C8.91477 16.75 9.66761 16.5881 10.2358 16.2642C10.804 15.9403 11.2159 15.5028 11.4716 14.9517C11.733 14.3949 11.8636 13.767 11.8636 13.0682C11.8636 12.3693 11.733 11.7443 11.4716 11.1932C11.2159 10.642 10.8011 10.2102 10.2273 9.89773C9.65341 9.57955 8.89205 9.42045 7.94318 9.42045H4.22727V25H2.11364ZM25.3253 19.6477V11.9091H27.3366V25H25.3253V22.7841H25.1889C24.8821 23.4489 24.4048 24.0142 23.7571 24.4801C23.1094 24.9403 22.2912 25.1705 21.3026 25.1705C20.4844 25.1705 19.7571 24.9915 19.1207 24.6335C18.4844 24.2699 17.9844 23.7244 17.6207 22.9972C17.2571 22.2642 17.0753 21.3409 17.0753 20.2273V11.9091H19.0866V20.0909C19.0866 21.0455 19.3537 21.8068 19.8878 22.375C20.4276 22.9432 21.1151 23.2273 21.9503 23.2273C22.4503 23.2273 22.9588 23.0994 23.4759 22.8438C23.9986 22.5881 24.4361 22.196 24.7884 21.6676C25.1463 21.1392 25.3253 20.4659 25.3253 19.6477ZM33.032 7.54545V25H31.0206V7.54545H33.032ZM45.9886 14.8409L44.1818 15.3523C44.0682 15.0511 43.9006 14.7585 43.679 14.4744C43.4631 14.1847 43.1676 13.946 42.7926 13.7585C42.4176 13.571 41.9375 13.4773 41.3523 13.4773C40.5511 13.4773 39.8835 13.6619 39.3494 14.0312C38.821 14.3949 38.5568 14.858 38.5568 15.4205C38.5568 15.9205 38.7386 16.3153 39.1023 16.6051C39.4659 16.8949 40.0341 17.1364 40.8068 17.3295L42.75 17.8068C43.9205 18.0909 44.7926 18.5256 45.3665 19.1108C45.9403 19.6903 46.2273 20.4375 46.2273 21.3523C46.2273 22.1023 46.0114 22.7727 45.5795 23.3636C45.1534 23.9545 44.5568 24.4205 43.7898 24.7614C43.0227 25.1023 42.1307 25.2727 41.1136 25.2727C39.7784 25.2727 38.6733 24.983 37.7983 24.4034C36.9233 23.8239 36.3693 22.9773 36.1364 21.8636L38.0455 21.3864C38.2273 22.0909 38.571 22.6193 39.0767 22.9716C39.5881 23.3239 40.2557 23.5 41.0795 23.5C42.017 23.5 42.7614 23.3011 43.3125 22.9034C43.8693 22.5 44.1477 22.017 44.1477 21.4545C44.1477 21 43.9886 20.6193 43.6705 20.3125C43.3523 20 42.8636 19.767 42.2045 19.6136L40.0227 19.1023C38.8239 18.8182 37.9432 18.3778 37.3807 17.7812C36.8239 17.179 36.5455 16.4261 36.5455 15.5227C36.5455 14.7841 36.7528 14.1307 37.1676 13.5625C37.5881 12.9943 38.1591 12.5483 38.8807 12.2244C39.608 11.9006 40.4318 11.7386 41.3523 11.7386C42.6477 11.7386 43.6648 12.0227 44.4034 12.5909C45.1477 13.1591 45.6761 13.9091 45.9886 14.8409ZM54.7436 25.2727C53.4822 25.2727 52.3942 24.9943 51.4794 24.4375C50.5703 23.875 49.8686 23.0909 49.3743 22.0852C48.8857 21.0739 48.6413 19.8977 48.6413 18.5568C48.6413 17.2159 48.8857 16.0341 49.3743 15.0114C49.8686 13.983 50.5561 13.1818 51.4368 12.608C52.3232 12.0284 53.3572 11.7386 54.5391 11.7386C55.2209 11.7386 55.8942 11.8523 56.5589 12.0795C57.2237 12.3068 57.8288 12.6761 58.3743 13.1875C58.9197 13.6932 59.3544 14.3636 59.6783 15.1989C60.0021 16.0341 60.1641 17.0625 60.1641 18.2841V19.1364H50.0732V17.3977H58.1186C58.1186 16.6591 57.9709 16 57.6754 15.4205C57.3857 14.8409 56.9709 14.3835 56.4311 14.0483C55.897 13.7131 55.2663 13.5455 54.5391 13.5455C53.7379 13.5455 53.0447 13.7443 52.4595 14.142C51.88 14.5341 51.4339 15.0455 51.1214 15.6761C50.8089 16.3068 50.6527 16.983 50.6527 17.7045V18.8636C50.6527 19.8523 50.8232 20.6903 51.1641 21.3778C51.5107 22.0597 51.9908 22.5795 52.6044 22.9375C53.218 23.2898 53.9311 23.4659 54.7436 23.4659C55.272 23.4659 55.7493 23.392 56.1754 23.2443C56.6072 23.0909 56.9794 22.8636 57.2919 22.5625C57.6044 22.2557 57.8459 21.875 58.0163 21.4205L59.9595 21.9659C59.755 22.625 59.4112 23.2045 58.9283 23.7045C58.4453 24.1989 57.8487 24.5852 57.1385 24.8636C56.4283 25.1364 55.63 25.2727 54.7436 25.2727Z" fill="black"/>
<path d="M98.1136 25V7.54545H104.011C105.381 7.54545 106.5 7.79261 107.369 8.28693C108.244 8.77557 108.892 9.4375 109.312 10.2727C109.733 11.108 109.943 12.0398 109.943 13.0682C109.943 14.0966 109.733 15.0312 109.312 15.8722C108.898 16.7131 108.256 17.3835 107.386 17.8835C106.517 18.3778 105.403 18.625 104.045 18.625H99.8182V16.75H103.977C104.915 16.75 105.668 16.5881 106.236 16.2642C106.804 15.9403 107.216 15.5028 107.472 14.9517C107.733 14.3949 107.864 13.767 107.864 13.0682C107.864 12.3693 107.733 11.7443 107.472 11.1932C107.216 10.642 106.801 10.2102 106.227 9.89773C105.653 9.57955 104.892 9.42045 103.943 9.42045H100.227V25H98.1136ZM118.253 25.2727C117.071 25.2727 116.034 24.9915 115.142 24.429C114.256 23.8665 113.562 23.0795 113.062 22.0682C112.568 21.0568 112.321 19.875 112.321 18.5227C112.321 17.1591 112.568 15.9687 113.062 14.9517C113.562 13.9347 114.256 13.1449 115.142 12.5824C116.034 12.0199 117.071 11.7386 118.253 11.7386C119.435 11.7386 120.469 12.0199 121.355 12.5824C122.247 13.1449 122.94 13.9347 123.435 14.9517C123.935 15.9687 124.185 17.1591 124.185 18.5227C124.185 19.875 123.935 21.0568 123.435 22.0682C122.94 23.0795 122.247 23.8665 121.355 24.429C120.469 24.9915 119.435 25.2727 118.253 25.2727ZM118.253 23.4659C119.151 23.4659 119.889 23.2358 120.469 22.7756C121.048 22.3153 121.477 21.7102 121.756 20.9602C122.034 20.2102 122.173 19.3977 122.173 18.5227C122.173 17.6477 122.034 16.8324 121.756 16.0767C121.477 15.321 121.048 14.7102 120.469 14.2443C119.889 13.7784 119.151 13.5455 118.253 13.5455C117.355 13.5455 116.616 13.7784 116.037 14.2443C115.457 14.7102 115.028 15.321 114.75 16.0767C114.472 16.8324 114.332 17.6477 114.332 18.5227C114.332 19.3977 114.472 20.2102 114.75 20.9602C115.028 21.7102 115.457 22.3153 116.037 22.7756C116.616 23.2358 117.355 23.4659 118.253 23.4659ZM127.255 25V11.9091H129.266V25H127.255ZM128.278 9.72727C127.886 9.72727 127.548 9.59375 127.263 9.3267C126.985 9.05966 126.846 8.73864 126.846 8.36364C126.846 7.98864 126.985 7.66761 127.263 7.40057C127.548 7.13352 127.886 7 128.278 7C128.67 7 129.005 7.13352 129.283 7.40057C129.567 7.66761 129.71 7.98864 129.71 8.36364C129.71 8.73864 129.567 9.05966 129.283 9.3267C129.005 9.59375 128.67 9.72727 128.278 9.72727ZM134.962 17.125V25H132.95V11.9091H134.893V13.9545H135.064C135.371 13.2898 135.837 12.7557 136.462 12.3523C137.087 11.9432 137.893 11.7386 138.882 11.7386C139.768 11.7386 140.544 11.9205 141.209 12.2841C141.874 12.642 142.391 13.1875 142.76 13.9205C143.129 14.6477 143.314 15.5682 143.314 16.6818V25H141.303V16.8182C141.303 15.7898 141.036 14.9886 140.501 14.4148C139.967 13.8352 139.234 13.5455 138.303 13.5455C137.661 13.5455 137.087 13.6847 136.581 13.9631C136.081 14.2415 135.686 14.6477 135.396 15.1818C135.107 15.7159 134.962 16.3636 134.962 17.125ZM152.683 11.9091V13.6136H145.898V11.9091H152.683ZM147.876 8.77273H149.887V21.25C149.887 21.8182 149.969 22.2443 150.134 22.5284C150.305 22.8068 150.521 22.9943 150.782 23.0909C151.049 23.1818 151.33 23.2273 151.626 23.2273C151.847 23.2273 152.029 23.2159 152.171 23.1932C152.313 23.1648 152.427 23.142 152.512 23.125L152.921 24.9318C152.785 24.983 152.594 25.0341 152.35 25.0852C152.106 25.142 151.796 25.1705 151.421 25.1705C150.853 25.1705 150.296 25.0483 149.751 24.804C149.211 24.5597 148.762 24.1875 148.404 23.6875C148.052 23.1875 147.876 22.5568 147.876 21.7955V8.77273Z" fill="black"/>
<path d="M68.1266 4.12568C70.8343 1.41924 75.1484 1.2972 78.0009 3.75957C80.8516 1.2972 85.1658 1.41924 87.8734 4.12568C90.5762 6.82728 90.7026 11.1289 88.2528 13.9802L79.5798 22.6793C78.7469 23.5117 77.4202 23.5496 76.5425 22.7928L76.4203 22.6793L67.7472 13.9802C65.2973 11.1289 65.4238 6.82728 68.1266 4.12568ZM69.7064 5.70471C67.7994 7.61081 67.7449 10.6673 69.5429 12.6393L69.7064 12.8103L78.0001 21.1002L83.9233 15.1781L79.9747 11.2313L78.7899 12.4156C77.4812 13.7236 75.3594 13.7236 74.0507 12.4156C72.742 11.1075 72.742 8.98661 74.0507 7.6785L76.3978 5.33097C74.4846 3.80008 71.7119 3.8702 69.8776 5.54132L69.7064 5.70471ZM79.1848 8.86277C79.621 8.42673 80.3283 8.42673 80.7645 8.86277L85.503 13.599L86.2937 12.8103C88.2566 10.8482 88.2566 7.66687 86.2937 5.70471C84.3866 3.7986 81.3287 3.74415 79.356 5.54132L79.1848 5.70471L75.6304 9.25752C75.2253 9.66242 75.1964 10.3009 75.5436 10.7391L75.6304 10.8366C76.0355 11.2415 76.6742 11.2704 77.1127 10.9234L77.2102 10.8366L79.1848 8.86277Z" fill="#B1040E"/>
<line x1="66" y1="25.75" x2="90" y2="25.75" stroke="black" stroke-width="0.5"/>
</svg>
